# xmcd
#
# Track frame offsets: 
#        150
#        12940
#        24768
#        38033
#        49930
#        61963
#        72323
#        84978
#        99700
#        113808
#        124443
#        138498
#        151630
#        165353
#        177905
#        192503
#        205888
#        220018
#        231375
#        245193
#        256768
#        273393
#        285048
#        297325
#
# Disc length: 4141 seconds
#
# Revision: 0
# Processed by: cddbd v1.5.1PL0 Copyright (c) Steve Scherf et al.
# Submitted via: ExactAudioCopy v0.95b3
#
DISCID=54102b18
DTITLE=Freddy King - Blues Guitar Hero
DYEAR=1900
DGENRE=Blues
TTITLE0=I Love The Woman
TTITLE1=Hideaway
TTITLE2=Lonesome Whistle Blues
TTITLE3=San-Ho-Zay
TTITLE4=I'm Tore Down
TTITLE5=See See Baby
TTITLE6=Christmas Tears
TTITLE7=You've Got To Love her With A Feeling
TTITLE8=Have You Ever Loved A Woman
TTITLE9=You Know That You Love Me (But You Never Tell Me So)
TTITLE10=It's Too Bad (Things Are Going So Tough)
TTITLE11=Sen-Sa-Shun
TTITLE12=If You Believe (In What You Do)
TTITLE13=Takin' Care Of Business
TTITLE14=Stumble
TTITLE15=Sittin' On The Dock Boat
TTITLE16=Side Tracked
TTITLE17=What About Love
TTITLE18=Come On (Let The Good Times Roll)
TTITLE19=Just Pickin'
TTITLE20=I'm On My Way To Atlanta
TTITLE21=In The Open
TTITLE22=Welfare (Turns Its Back On You)
TTITLE23=She Put The Whammy On Me)
EXTD=
EXTT0=
EXTT1=
EXTT2=
EXTT3=
EXTT4=
EXTT5=
EXTT6=
EXTT7=
EXTT8=
EXTT9=
EXTT10=
EXTT11=
EXTT12=
EXTT13=
EXTT14=
EXTT15=
EXTT16=
EXTT17=
EXTT18=
EXTT19=
EXTT20=
EXTT21=
EXTT22=
EXTT23=
PLAYORDER=
